<svg width="197" height="35" viewBox="0 0 197 35" fill="none" xmlns="http://www.w3.org/2000/svg">
<path fill-rule="evenodd" clip-rule="evenodd" d="M2.66305 0.00271327H22.7544C24.2194 0.00271327 25.4172 1.18356 25.4172 2.6272V22.4297C25.4172 23.8729 24.2194 25.054 22.7544 25.054H2.66305C1.1983 25.054 0 23.8729 0 22.4297V2.6272C0 1.18356 1.1983 0.00271327 2.66305 0.00271327ZM179.351 25.0551V15.8568H184.725L191.662 25.0551H197L189.374 15.0336C191.069 14.5562 192.424 13.6618 193.441 12.3494C194.458 11.037 194.966 9.5215 194.966 7.80364C194.966 6.73009 194.809 5.75152 194.494 4.86892C194.179 3.9856 193.665 3.16877 192.951 2.41722C192.236 1.66544 191.201 1.0749 189.846 0.645395C188.49 0.215886 186.856 0.000911327 184.944 0.000911327H174.957V25.0551H179.351ZM65.8806 33.53H67.5188L66.7117 32.0319L65.8806 33.53ZM64.2085 35L66.323 31.3178H67.162L69.3043 35H68.329L67.8801 34.1936H65.5102L65.075 35H64.2085ZM76.2424 31.3178V34.3076H78.7181V31.3178H79.5869V34.1308C79.5869 34.4659 79.523 34.6954 79.3948 34.8165C79.2681 34.9395 79.0223 35 78.6576 35H76.2992C75.9387 35 75.6945 34.9395 75.5668 34.8165C75.4373 34.6954 75.3738 34.4659 75.3738 34.1308V31.3178H76.2424ZM88.2634 31.9743V35H87.3943V31.9743H85.6788V31.3178H89.9858V31.9743H88.2634ZM95.9976 32.1873C95.9976 31.8532 96.0613 31.6253 96.1881 31.5026C96.3146 31.3799 96.5592 31.3178 96.9223 31.3178H99.6723C100.037 31.3178 100.283 31.3799 100.41 31.5026C100.537 31.6253 100.601 31.8532 100.601 32.1873V34.1294C100.601 34.4659 100.537 34.6954 100.41 34.8165C100.283 34.9395 100.037 35 99.6723 35H96.9223C96.5592 35 96.3146 34.9395 96.1881 34.8165C96.0613 34.6954 95.9976 34.4659 95.9976 34.1294V32.1873ZM96.8659 34.3076H99.7321V31.9743H96.8659V34.3076ZM110.594 31.9743H108.248V34.3076H110.594V33.516L111.463 33.6942V34.1294C111.463 34.4659 111.399 34.6954 111.269 34.8165C111.142 34.9395 110.898 35 110.537 35H108.305C107.941 35 107.697 34.9395 107.57 34.8165C107.443 34.6954 107.38 34.4659 107.38 34.1294V32.1873C107.38 31.8548 107.443 31.6253 107.57 31.5026C107.697 31.3799 107.941 31.3178 108.305 31.3178H110.537C110.898 31.3178 111.142 31.3799 111.269 31.5026C111.399 31.6253 111.463 31.8548 111.463 32.1873V32.537L110.594 32.6739V31.9743ZM118.283 35V31.3178H122.105V31.946H119.152V32.7662H120.874V33.3944H119.152V34.3076H122.142V35H118.283ZM128.767 35V31.3178H129.36L131.99 33.4885C132.08 33.5597 132.158 33.6278 132.227 33.6917C132.295 33.7561 132.357 33.8212 132.414 33.8893C132.401 33.6819 132.391 33.5361 132.386 33.4502C132.381 33.3636 132.379 33.2983 132.379 33.252V31.3178H133.161V35H132.567L129.824 32.725C129.758 32.6667 129.7 32.6152 129.651 32.568C129.601 32.5213 129.556 32.4741 129.514 32.4249C129.524 32.5394 129.534 32.6465 129.54 32.7474C129.546 32.8488 129.548 32.9368 129.548 33.0103V35H128.767ZM141.83 31.9743V35H140.961V31.9743H139.245V31.3178H143.553V31.9743H141.83ZM149.643 35V31.3178H153.466V31.946H150.512V32.7662H152.235V33.3944H150.512V34.3076H153.502V35H149.643ZM162.942 31.9532H160.989V32.9805H162.942C163.093 32.9805 163.195 32.959 163.251 32.9161C163.306 32.8724 163.334 32.7966 163.334 32.6871V32.2433C163.334 32.1362 163.306 32.0614 163.251 32.0172C163.195 31.9743 163.093 31.9532 162.942 31.9532ZM160.134 35V31.3178H163.327C163.625 31.3178 163.841 31.374 163.974 31.4872C164.108 31.599 164.174 31.7795 164.174 32.0306V32.8966C164.174 33.1447 164.108 33.3255 163.974 33.4384C163.841 33.5516 163.625 33.608 163.327 33.608H162.839L164.566 35H163.318L161.813 33.608H160.989V35H160.134ZM31.7748 25.0546H36.3138L38.7465 19.5068H50.3307L52.8005 25.0546H57.4124L46.2642 0H42.9228L31.7748 25.0546ZM44.5208 6.26427L48.6969 15.7847H40.3442L44.5208 6.26427ZM77.9034 18.1336C77.9034 19.0661 77.4892 19.7936 76.6614 20.3182C75.8342 20.8427 74.6755 21.1048 73.1864 21.1048C69.5924 21.1048 66.6723 19.9392 64.4262 17.6088L61.8729 20.5801C62.9605 21.8621 64.5092 22.9279 66.5193 23.7788C68.5285 24.6292 70.6209 25.0546 72.7961 25.0546C75.4677 25.0546 77.726 24.3788 79.5699 23.027C81.4143 21.6757 82.3363 19.9392 82.3363 17.8191C82.3363 16.4205 81.958 15.2263 81.2015 14.236C80.4443 13.2452 79.4993 12.5229 78.3638 12.0687C77.229 11.6146 75.9999 11.1951 74.6755 10.81C73.3516 10.4261 72.1222 10.1116 70.9874 9.86642C69.8524 9.62171 68.9062 9.24935 68.15 8.74797C67.3932 8.24676 67.0156 7.6118 67.0156 6.84278C67.0156 5.88759 67.5115 5.1712 68.5047 4.69293C69.4978 4.21533 70.7276 3.97654 72.1931 3.97654C75.0303 3.97654 77.4892 4.82742 79.5699 6.52825L81.9106 3.5223C79.5936 1.19195 76.3897 0.026532 72.2996 0.026532C69.4861 0.026532 67.1631 0.696875 65.3309 2.03624C63.498 3.37648 62.5823 5.01361 62.5823 6.94778C62.5823 8.15924 62.8657 9.20266 63.4331 10.0762C64.0007 10.9504 64.7336 11.6315 65.6323 12.1206C66.5303 12.6107 67.5237 13.0243 68.6115 13.3617C69.6987 13.7001 70.7865 13.9913 71.8737 14.236C72.9618 14.4805 73.9546 14.7485 74.8529 15.0401C75.7516 15.3315 76.4847 15.7332 77.0518 16.2457C77.6192 16.7584 77.9034 17.3877 77.9034 18.1336ZM86.9981 25.0551H91.5378L93.9707 19.5072H105.555L108.024 25.0551H112.636L101.488 0.000911327H98.1466L86.9981 25.0551ZM99.7445 6.26427L103.921 15.7853H95.5684L99.7445 6.26427ZM137.652 17.7601C135.832 19.9045 133.42 20.9763 130.417 20.9763C127.864 20.9763 125.789 20.2014 124.193 18.6518C122.597 17.1018 121.799 15.0569 121.799 12.5174C121.799 9.95397 122.567 7.90321 124.105 6.36543C125.641 4.82742 127.686 4.05843 130.24 4.05843C132.982 4.05843 135.217 5.00181 136.943 6.88952L139.78 4.23302C138.905 2.97463 137.605 1.95551 135.879 1.17427C134.153 0.39367 132.202 0.00362459 130.027 0.00362459C126.245 0.00362459 123.183 1.19785 120.842 3.58626C118.501 5.97514 117.331 8.95161 117.331 12.5174C117.331 16.3158 118.483 19.351 120.788 21.6228C123.093 23.8951 126.197 25.0315 130.098 25.0315C132.226 25.0315 134.183 24.6292 135.968 23.8248C137.753 23.0211 139.154 21.9083 140.17 20.4869L137.652 17.7601ZM144.806 25.0551H149.345L151.778 19.5072H163.362L165.832 25.0551H170.443L159.295 0.000911327H155.954L144.806 25.0551ZM157.552 6.26427L161.728 15.7853H153.376L157.552 6.26427ZM184.834 4.08086C186.868 4.08086 188.302 4.40357 189.138 5.04761C189.973 5.69233 190.39 6.61057 190.39 7.80364C190.39 9.04411 189.918 10.017 188.974 10.7205C188.03 11.4241 186.723 11.7766 185.052 11.7766H179.351V4.08086H184.834ZM4.74881 14.861C3.55189 16.0309 2.35449 17.2006 1.15757 18.3708H0.586962V16.1099L2.38764 14.35C2.38764 13.0098 2.38764 11.6688 2.38764 10.3288C3.63125 9.11307 4.87513 7.89777 6.11874 6.68224C6.29061 6.68224 6.4618 6.68224 6.63323 6.68224C6.63323 7.45418 6.63323 8.2266 6.63323 8.99854C6.00509 9.61198 5.37695 10.2258 4.74881 10.8395C4.74881 12.1798 4.74881 13.5205 4.74881 14.861ZM4.74881 0.580784V3.05356C3.55189 4.22352 2.35449 5.39324 1.15757 6.56296H0.586962V4.30241L2.38764 2.54284V0.625004C2.53235 0.595957 2.68147 0.580784 2.83447 0.580784H4.74881ZM16.825 0.580784V3.05763C16.8248 3.05763 16.8248 3.05763 16.8248 3.05763C16.8248 3.05763 16.8248 3.05763 16.825 3.05763C15.6274 4.22782 14.4305 5.39731 13.2329 6.56679C13.0426 6.56679 12.8514 6.56679 12.6609 6.56679C12.6609 5.81413 12.6609 5.06123 12.6609 4.30788C13.2616 3.72099 13.8624 3.13337 14.4634 2.54671V0.580784H16.825ZM14.4634 24.4759V22.1399C15.707 20.9241 16.9511 19.7088 18.1947 18.4935C18.3661 18.4935 18.5376 18.4935 18.7092 18.4935C18.7092 19.2655 18.7092 20.0376 18.7092 20.8096C18.0813 21.4235 17.4529 22.0367 16.825 22.6508V24.4759H14.4634ZM2.38764 24.4315V22.136C3.63125 20.9207 4.87513 19.7054 6.11874 18.4896C6.29061 18.4896 6.4618 18.4896 6.63323 18.4896C6.63323 19.2618 6.63323 20.0338 6.63323 20.8055C6.00509 21.4192 5.37695 22.033 4.74881 22.647V24.4759H2.83447C2.68147 24.4759 2.53235 24.4607 2.38764 24.4315ZM16.825 14.8648C15.6274 16.0343 14.4305 17.2045 13.2329 18.3742C13.0426 18.3742 12.8514 18.3742 12.6609 18.3742C12.6609 17.6213 12.6609 16.8682 12.6609 16.115C13.2616 15.5284 13.8624 14.941 14.4634 14.3539C14.4634 13.0132 14.4634 11.6729 14.4634 10.3322C15.707 9.11691 16.9511 7.90161 18.1947 6.68631C18.3661 6.68631 18.5376 6.68631 18.7092 6.68631C18.7092 7.45825 18.7092 8.23023 18.7092 9.00241C18.0813 9.6156 17.4529 10.23 16.825 10.8436C16.825 12.1839 16.825 13.5248 16.825 14.8648C16.8248 14.8648 16.8248 14.8648 16.8248 14.8648C16.8248 14.8648 16.8248 14.8648 16.825 14.8648ZM20.6686 8.91578C21.8662 10.0857 23.0629 11.2554 24.2601 12.4251H24.8307V10.164L23.03 8.40482C23.03 7.0639 23.03 5.72342 23.03 4.38294C21.7862 3.16761 20.5421 1.95211 19.2985 0.737015C19.1273 0.737015 18.9556 0.737015 18.7844 0.737015C18.7844 1.50896 18.7844 2.28114 18.7844 3.05264C19.4126 3.66608 20.0403 4.28018 20.6686 4.89362C20.6686 6.23457 20.6686 7.57482 20.6686 8.91578ZM20.6686 20.7227L23.9994 23.9775C24.5058 23.5706 24.8307 22.9513 24.8307 22.2607V21.9712L23.03 20.212C23.03 18.8711 23.03 17.5311 23.03 16.1901C21.7862 14.9751 20.5421 13.7595 19.2985 12.5442C19.1273 12.5442 18.9556 12.5442 18.7844 12.5442C18.7844 13.3162 18.7844 14.0877 18.7844 14.8603C19.4126 15.4737 20.0403 16.0876 20.6686 16.7017C20.6686 18.0418 20.6686 19.3823 20.6686 20.7227ZM8.59311 9.00285C9.79027 10.1733 10.9874 11.343 12.1841 12.5125C12.3753 12.5125 12.566 12.5125 12.7568 12.5125C12.7568 11.7598 12.7568 11.0067 12.7568 10.2533C12.1561 9.66665 11.5548 9.07927 10.9541 8.49193C10.9541 7.15189 10.9541 5.81118 10.9541 4.4707C9.71043 3.2554 8.46634 2.03963 7.2225 0.824771C7.05152 0.824771 6.87964 0.824771 6.70846 0.824771C6.70846 1.59675 6.70846 2.36846 6.70846 3.14019C7.33659 3.75387 7.96473 4.36774 8.59311 4.98161C8.59311 6.32257 8.59311 7.66237 8.59311 9.00285ZM8.59311 20.8107C9.79027 21.9805 10.9874 23.1504 12.1841 24.3201C12.3753 24.3201 12.566 24.3201 12.7568 24.3201C12.7568 23.567 12.7568 22.8143 12.7568 22.0605C12.1561 21.4738 11.5548 20.8867 10.9541 20.2993C10.9541 18.9589 10.9541 17.6188 10.9541 16.2779C9.71043 15.0626 8.46634 13.8473 7.2225 12.632C7.05152 12.632 6.87964 12.632 6.70846 12.632C6.70846 13.4039 6.70846 14.1757 6.70846 14.9478C7.33659 15.561 7.96473 16.1751 8.59311 16.7891C8.59311 18.1298 8.59311 19.47 8.59311 20.8107Z" fill="#203E6F"/>
</svg>
