<?xml version="1.0" encoding="utf-8"?>
<!-- Generator: Adobe Illustrator 24.0.2, SVG Export Plug-In . SVG Version: 6.00 Build 0)  -->
<svg version="1.1" id="Layer_1" xmlns="http://www.w3.org/2000/svg" xmlns:xlink="http://www.w3.org/1999/xlink" x="0px" y="0px"
	 viewBox="0 0 197 35" style="enable-background:new 0 0 197 35;" xml:space="preserve">
<style type="text/css">
	.st0{fill-rule:evenodd;clip-rule:evenodd;fill:#FFFFFF;}
</style>
<path class="st0" d="M2.7,0h20.1c1.5,0,2.7,1.2,2.7,2.6v19.8c0,1.4-1.2,2.6-2.7,2.6H2.7c-1.5,0-2.7-1.2-2.7-2.6V2.6
	C0,1.2,1.2,0,2.7,0z M179.4,25.1v-9.2h5.4l6.9,9.2h5.3l-7.6-10c1.7-0.5,3.1-1.4,4.1-2.7s1.5-2.8,1.5-4.5c0-1.1-0.2-2.1-0.5-2.9
	c-0.3-0.9-0.8-1.7-1.5-2.5c-0.7-0.8-1.8-1.3-3.1-1.8c-1.4-0.4-3-0.6-4.9-0.6h-10v25.1H179.4z M65.9,33.5h1.6L66.7,32L65.9,33.5z
	 M64.2,35l2.1-3.7h0.8l2.1,3.7h-1l-0.4-0.8h-2.4L65.1,35H64.2z M76.2,31.3v3h2.5v-3h0.9v2.8c0,0.3-0.1,0.6-0.2,0.7
	C79.3,34.9,79,35,78.7,35h-2.4c-0.4,0-0.6-0.1-0.7-0.2c-0.1-0.1-0.2-0.4-0.2-0.7v-2.8H76.2z M88.3,32v3h-0.9v-3h-1.7v-0.7H90V32
	H88.3z M96,32.2c0-0.3,0.1-0.6,0.2-0.7c0.1-0.1,0.4-0.2,0.7-0.2h2.8c0.4,0,0.6,0.1,0.7,0.2c0.1,0.1,0.2,0.4,0.2,0.7v1.9
	c0,0.3-0.1,0.6-0.2,0.7c-0.1,0.1-0.4,0.2-0.7,0.2h-2.8c-0.4,0-0.6-0.1-0.7-0.2c-0.1-0.1-0.2-0.4-0.2-0.7V32.2z M96.9,34.3h2.9V32
	h-2.9V34.3z M110.6,32h-2.3v2.3h2.3v-0.8l0.9,0.2v0.4c0,0.3-0.1,0.6-0.2,0.7c-0.1,0.1-0.4,0.2-0.7,0.2h-2.2c-0.4,0-0.6-0.1-0.7-0.2
	c-0.1-0.1-0.2-0.4-0.2-0.7v-1.9c0-0.3,0.1-0.6,0.2-0.7s0.4-0.2,0.7-0.2h2.2c0.4,0,0.6,0.1,0.7,0.2c0.1,0.1,0.2,0.4,0.2,0.7v0.3
	l-0.9,0.1V32z M118.3,35v-3.7h3.8v0.6h-3v0.8h1.7v0.6h-1.7v0.9h3V35H118.3z M128.8,35v-3.7h0.6l2.6,2.2c0.1,0.1,0.2,0.1,0.2,0.2
	c0.1,0.1,0.1,0.1,0.2,0.2c0-0.2,0-0.4,0-0.4c0-0.1,0-0.2,0-0.2v-1.9h0.8V35h-0.6l-2.7-2.3c-0.1-0.1-0.1-0.1-0.2-0.2
	c-0.1,0-0.1-0.1-0.1-0.1c0,0.1,0,0.2,0,0.3c0,0.1,0,0.2,0,0.3v2H128.8z M141.8,32v3H141v-3h-1.7v-0.7h4.3V32H141.8z M149.6,35v-3.7
	h3.8v0.6h-3v0.8h1.7v0.6h-1.7v0.9h3V35H149.6z M162.9,32h-2v1h2c0.2,0,0.3,0,0.3-0.1c0.1,0,0.1-0.1,0.1-0.2v-0.4
	c0-0.1,0-0.2-0.1-0.2C163.2,32,163.1,32,162.9,32z M160.1,35v-3.7h3.2c0.3,0,0.5,0.1,0.6,0.2c0.1,0.1,0.2,0.3,0.2,0.5v0.9
	c0,0.2-0.1,0.4-0.2,0.5c-0.1,0.1-0.3,0.2-0.6,0.2h-0.5l1.7,1.4h-1.2l-1.5-1.4H161V35H160.1z M31.8,25.1h4.5l2.4-5.5h11.6l2.5,5.5
	h4.6L46.3,0h-3.3L31.8,25.1z M44.5,6.3l4.2,9.5h-8.4L44.5,6.3z M77.9,18.1c0,0.9-0.4,1.7-1.2,2.2c-0.8,0.5-2,0.8-3.5,0.8
	c-3.6,0-6.5-1.2-8.8-3.5l-2.6,3c1.1,1.3,2.6,2.3,4.6,3.2c2,0.9,4.1,1.3,6.3,1.3c2.7,0,4.9-0.7,6.8-2c1.8-1.4,2.8-3.1,2.8-5.2
	c0-1.4-0.4-2.6-1.1-3.6c-0.8-1-1.7-1.7-2.8-2.2c-1.1-0.5-2.4-0.9-3.7-1.3c-1.3-0.4-2.6-0.7-3.7-0.9c-1.1-0.2-2.1-0.6-2.8-1.1
	C67.4,8.2,67,7.6,67,6.8c0-1,0.5-1.7,1.5-2.1c1-0.5,2.2-0.7,3.7-0.7c2.8,0,5.3,0.9,7.4,2.6l2.3-3C79.6,1.2,76.4,0,72.3,0
	c-2.8,0-5.1,0.7-7,2c-1.8,1.3-2.7,3-2.7,4.9c0,1.2,0.3,2.3,0.9,3.1c0.6,0.9,1.3,1.6,2.2,2c0.9,0.5,1.9,0.9,3,1.2
	c1.1,0.3,2.2,0.6,3.3,0.9c1.1,0.2,2.1,0.5,3,0.8c0.9,0.3,1.6,0.7,2.2,1.2C77.6,16.8,77.9,17.4,77.9,18.1z M87,25.1h4.5l2.4-5.5h11.6
	l2.5,5.5h4.6L101.5,0h-3.3L87,25.1z M99.7,6.3l4.2,9.5h-8.4L99.7,6.3z M137.7,17.8c-1.8,2.1-4.2,3.2-7.2,3.2c-2.6,0-4.6-0.8-6.2-2.3
	c-1.6-1.5-2.4-3.6-2.4-6.1c0-2.6,0.8-4.6,2.3-6.2c1.5-1.5,3.6-2.3,6.1-2.3c2.7,0,5,0.9,6.7,2.8l2.8-2.7c-0.9-1.3-2.2-2.3-3.9-3.1
	C134.2,0.4,132.2,0,130,0c-3.8,0-6.8,1.2-9.2,3.6c-2.3,2.4-3.5,5.4-3.5,8.9c0,3.8,1.2,6.8,3.5,9.1c2.3,2.3,5.4,3.4,9.3,3.4
	c2.1,0,4.1-0.4,5.9-1.2c1.8-0.8,3.2-1.9,4.2-3.3L137.7,17.8z M144.8,25.1h4.5l2.4-5.5h11.6l2.5,5.5h4.6L159.3,0H156L144.8,25.1z
	 M157.6,6.3l4.2,9.5h-8.4L157.6,6.3z M184.8,4.1c2,0,3.5,0.3,4.3,1c0.8,0.6,1.3,1.6,1.3,2.8c0,1.2-0.5,2.2-1.4,2.9
	c-0.9,0.7-2.3,1.1-3.9,1.1h-5.7V4.1H184.8z M4.7,14.9c-1.2,1.2-2.4,2.3-3.6,3.5H0.6v-2.3l1.8-1.8c0-1.3,0-2.7,0-4
	c1.2-1.2,2.5-2.4,3.7-3.6c0.2,0,0.3,0,0.5,0c0,0.8,0,1.5,0,2.3C6,9.6,5.4,10.2,4.7,10.8C4.7,12.2,4.7,13.5,4.7,14.9z M4.7,0.6v2.5
	C3.6,4.2,2.4,5.4,1.2,6.6H0.6V4.3l1.8-1.8V0.6c0.1,0,0.3,0,0.4,0H4.7z M16.8,0.6v2.5c0,0,0,0,0,0s0,0,0,0c-1.2,1.2-2.4,2.3-3.6,3.5
	c-0.2,0-0.4,0-0.6,0c0-0.8,0-1.5,0-2.3c0.6-0.6,1.2-1.2,1.8-1.8v-2H16.8z M14.5,24.5v-2.3c1.2-1.2,2.5-2.4,3.7-3.6
	c0.2,0,0.3,0,0.5,0c0,0.8,0,1.5,0,2.3c-0.6,0.6-1.3,1.2-1.9,1.8v1.8H14.5z M2.4,24.4v-2.3c1.2-1.2,2.5-2.4,3.7-3.6
	c0.2,0,0.3,0,0.5,0c0,0.8,0,1.5,0,2.3C6,21.4,5.4,22,4.7,22.6v1.8H2.8C2.7,24.5,2.5,24.5,2.4,24.4z M16.8,14.9
	c-1.2,1.2-2.4,2.3-3.6,3.5c-0.2,0-0.4,0-0.6,0c0-0.8,0-1.5,0-2.3c0.6-0.6,1.2-1.2,1.8-1.8c0-1.3,0-2.7,0-4c1.2-1.2,2.5-2.4,3.7-3.6
	c0.2,0,0.3,0,0.5,0c0,0.8,0,1.5,0,2.3c-0.6,0.6-1.3,1.2-1.9,1.8C16.8,12.2,16.8,13.5,16.8,14.9C16.8,14.9,16.8,14.9,16.8,14.9
	C16.8,14.9,16.8,14.9,16.8,14.9z M20.7,8.9c1.2,1.2,2.4,2.3,3.6,3.5h0.6v-2.3L23,8.4c0-1.3,0-2.7,0-4c-1.2-1.2-2.5-2.4-3.7-3.6
	c-0.2,0-0.3,0-0.5,0c0,0.8,0,1.5,0,2.3c0.6,0.6,1.3,1.2,1.9,1.8C20.7,6.2,20.7,7.6,20.7,8.9z M20.7,20.7L24,24
	c0.5-0.4,0.8-1,0.8-1.7V22L23,20.2c0-1.3,0-2.7,0-4c-1.2-1.2-2.5-2.4-3.7-3.6c-0.2,0-0.3,0-0.5,0c0,0.8,0,1.5,0,2.3
	c0.6,0.6,1.3,1.2,1.9,1.8C20.7,18,20.7,19.4,20.7,20.7z M8.6,9c1.2,1.2,2.4,2.3,3.6,3.5c0.2,0,0.4,0,0.6,0c0-0.8,0-1.5,0-2.3
	c-0.6-0.6-1.2-1.2-1.8-1.8c0-1.3,0-2.7,0-4C9.7,3.3,8.5,2,7.2,0.8c-0.2,0-0.3,0-0.5,0c0,0.8,0,1.5,0,2.3C7.3,3.8,8,4.4,8.6,5
	C8.6,6.3,8.6,7.7,8.6,9z M8.6,20.8c1.2,1.2,2.4,2.3,3.6,3.5c0.2,0,0.4,0,0.6,0c0-0.8,0-1.5,0-2.3c-0.6-0.6-1.2-1.2-1.8-1.8
	c0-1.3,0-2.7,0-4c-1.2-1.2-2.5-2.4-3.7-3.6c-0.2,0-0.3,0-0.5,0c0,0.8,0,1.5,0,2.3c0.6,0.6,1.3,1.2,1.9,1.8
	C8.6,18.1,8.6,19.5,8.6,20.8z"/>
</svg>
